<svg id="e6cb493c-f8a2-482d-83bc-7e9ab8c0cb7b" data-name="Capa 1" xmlns="http://www.w3.org/2000/svg" width="240.7" height="214.3" viewBox="0 0 240.7 214.3">
  <defs>
    <style>
      .eaa01f0e-c47a-460b-a5ca-e852d154e74f {
        font-size: 76.31px;
        font-family: Montserrat-ExtraBold, Montserrat;
        font-weight: 800;
      }

      .afb390b6-3d27-43a1-bc79-a32b0023900d, .eaa01f0e-c47a-460b-a5ca-e852d154e74f {
        fill: #252a41;
      }

      .a9fa86c9-b0e4-4d09-b2eb-5d53eb7f3789 {
        fill: #fff;
      }

      .afbb7e9f-09c1-40ef-817d-17077558d491 {
        fill: #dedede;
      }
    </style>
  </defs>
  <title>logo</title>
  <g>
    <text class="eaa01f0e-c47a-460b-a5ca-e852d154e74f" transform="translate(0 193.8)">Hideb</text>
    <g>
      <path class="afb390b6-3d27-43a1-bc79-a32b0023900d" d="M54.6,90.9a112.6,112.6,0,0,1,5.2-15.2C25.3,53.5,51,12.4,76.9,23.8c5.7-24.8,37.5-35,56.9-6.9,13.5-2.9,28.5.3,34.6,20.8,22.1-1.2,39.4,28.5,22.1,53.2,16.1,27.1-10.8,40.3-29.2,24.8L156.9,128a1.9,1.9,0,0,1-2.8.9c-31.5-19.8-63.7-32.3-97-34.5A2.9,2.9,0,0,1,54.6,90.9Z"/>
      <path class="a9fa86c9-b0e4-4d09-b2eb-5d53eb7f3789" d="M71.7,68.8q-5.1-1-7.8,2.1C35.2,60,50.7,16.2,75.8,30.3c1.2,5.1,2.4,10.3,6.6,15.6C67.9,23.7,102.8-18.9,129.2,20c-6.2,4.9-10,12.8-13.1,21.6,9.4-22.1,37.9-30.4,46.4-2.6a39.4,39.4,0,0,0-10.2,6.2c27.8-10.9,50.2,14.9,34.6,41.2l-6.5-4.6c22,26.1,6.6,45.7-17,28.7.9-7.7-4.4-13.4-13.6-17.9s-.4-9.3,11.7-12.7c-3.4-2.2-9.1-1.3-17.2,2.6a15.5,15.5,0,0,1-7.3,1.6c-21.8-.8-33.2-10.7-28.5-34.9-7.7,5.2-.6,30.6-25.4,20.1a12.6,12.6,0,0,1-7.6-9.8,29.2,29.2,0,0,1,1.2-11C73.4,52.8,70.9,58.4,71.7,68.8Z"/>
      <path class="a9fa86c9-b0e4-4d09-b2eb-5d53eb7f3789" d="M64.5,77.8a49.2,49.2,0,0,1,19,2.7l-20.1.3a2.2,2.2,0,0,0-2.1,1.6L59,89.6a1.3,1.3,0,0,0,1.2,1.8c31.9,2.3,62.6,12.9,92,33.7a1.1,1.1,0,0,0,1.7-.6l.9-2.5a2.4,2.4,0,0,0-.9-2.7l-13.4-9.8,13.7,6.6a1.6,1.6,0,0,0,2.2-1.1l1.2-5.3a6.6,6.6,0,0,0-1.1-5.6,23.7,23.7,0,0,0-6.1-5.2A162.5,162.5,0,0,0,70.8,73a8.9,8.9,0,0,0-3.9.6,7,7,0,0,0-3.2,2.9A.9.9,0,0,0,64.5,77.8Z"/>
      <path class="afbb7e9f-09c1-40ef-817d-17077558d491" d="M118.5,36.9c15-10.9,29.3-12.7,42.2,2.8l1.8-.7C156.6,17.1,134.1,14.4,118.5,36.9Z"/>
      <path class="afbb7e9f-09c1-40ef-817d-17077558d491" d="M139.3,54.8c22.3-11.1,47.3-8.7,51.7,22.1C197.5,45.6,164.3,30,139.3,54.8Z"/>
      <path class="afbb7e9f-09c1-40ef-817d-17077558d491" d="M156.5,81.4c-4.6,5.2-4.5,10.7,4,16.9,12.9,12.7,31.5,13.6,21.1-14l-1.2-2.5c22.3,26.9,6,45.4-17,28.7.3-7.6-4-13.6-13.6-17.9S146.8,84.5,156.5,81.4Z"/>
      <path class="afbb7e9f-09c1-40ef-817d-17077558d491" d="M51.4,37.2c-.8,11.2-1.2,22.2,13.2,28.4,2.6,1.4,4.1-2.3,5.2-7.1s4.3-8.9,6.9-10c-3.4,5-6,10.9-5,20.3-3.1-.6-5.8-.2-7.8,2.1C48.7,64.9,45.1,50.1,51.4,37.2Z"/>
      <path class="afbb7e9f-09c1-40ef-817d-17077558d491" d="M75.9,51.9c2.3,15.1,18.8,19,26.5,4.1,2.4-4.8,4.7-9.2,7.6-11.1-2.9,20.5,4.6,34.8,38.4,33.4,6.2,0,11,.4,13.1,1.6-11.2-4-17,5.3-24.5,4.2-22.4-.3-32.6-12.3-28.5-34.9-2.6,2-4.2,6.9-5.4,13.2s-5.6,11.4-15.6,8.5C74.1,66.9,75.1,59.4,75.9,51.9Z"/>
      <path class="afbb7e9f-09c1-40ef-817d-17077558d491" d="M79.7,39.7c5.1-25,22-35.1,49.5-19.7C106.7-13.9,74.6,15.2,79.7,39.7Z"/>
    </g>
  </g>
</svg>
